# xmcd
#
# Track frame offsets:
#	150
#	31730
#	58475
#	83665
#	107679
#	132145
#	150975
#	176695
#	201085
#	216259
#	235227
#	275025
#	298885
#
# Disc length: 4281 seconds
#
# Revision: 6
# Processed by: cddbd v1.5.2PL0 Copyright (c) Steve Scherf et al.
# Submitted via: audiograbber 1.83.01
#
DISCID=bd10b70d
DTITLE=Bob Marley and The Wailers - Legend (Deluxe Edition, The Remixes, CD2) '02
DYEAR=2002
DGENRE=Reggae
TTITLE0=One Love, People Get Ready (Extended12''Version) '84
TTITLE1=Waiting In Vain (J.Mendelsohn Remix)'84
TTITLE2=Jamming (12''Remix)'84
TTITLE3=Three Little Birds, Three Little Birds (12''Dub Version)'85
TTITLE4=Could You Be Loved (12''Version)'79
TTITLE5=No Woman No Cry (Remix)'84
TTITLE6=Coming From The Cold (12''Remix)'84
TTITLE7=Buffalo Soldier (12''Remix)'84
TTITLE8=Jamming (Eric 'E.T.'Thorngren Remix)'84
TTITLE9=Waiting In Vain (Eric 'E.T.'Thorngren Remix)'84
TTITLE10=Exodus (12''Remix)'84
TTITLE11=Lively Up Yourself (12''Remix)'84
TTITLE12=One Love, People Get Ready (12''Dub Version)'84
EXTD=YEAR: 2002
EXTT0=
EXTT1=
EXTT2=
EXTT3=
EXTT4=
EXTT5=
EXTT6=
EXTT7=
EXTT8=
EXTT9=
EXTT10=
EXTT11=
EXTT12=
PLAYORDER=
